<?xml version="1.0" standalone="no"?>
<!DOCTYPE svg PUBLIC "-//W3C//DTD SVG 20010904//EN"
 "http://www.w3.org/TR/2001/REC-SVG-20010904/DTD/svg10.dtd">
<svg version="1.0" xmlns="http://www.w3.org/2000/svg"
 width="760.000000pt" height="760.000000pt" viewBox="0 0 760.000000 760.000000"
 preserveAspectRatio="xMidYMid meet">
<metadata>
Created by potrace 1.11, written by Peter Selinger 2001-2013
</metadata>
<g transform="translate(0.000000,760.000000) scale(0.100000,-0.100000)"
fill="#000000" stroke="none">
<path d="M3650 7145 c-321 -35 -581 -102 -820 -210 -58 -26 -141 -60 -185 -75
-371 -127 -697 -367 -889 -655 -169 -253 -251 -534 -263 -893 -20 -600 182
-1037 612 -1324 50 -33 91 -63 92 -67 1 -3 -33 -30 -76 -58 -509 -342 -760
-926 -720 -1673 37 -681 351 -1192 910 -1484 159 -83 296 -135 479 -180 448
-110 1000 -112 1445 -6 145 34 300 88 415 142 47 22 130 55 185 75 222 77 441
204 615 355 47 40 124 103 171 140 418 324 626 859 581 1497 -33 455 -173 784
-457 1066 -205 204 -470 357 -825 477 -182 62 -344 101 -820 198 -486 99 -607
129 -786 191 -285 100 -426 206 -519 391 -65 130 -80 209 -80 418 1 183 9 237
57 360 57 145 194 314 321 394 98 63 334 98 657 98 204 0 316 -9 515 -43 329
-56 726 -185 1090 -354 54 -25 106 -45 117 -45 25 0 146 49 270 108 l97 47 1
406 0 406 -132 41 c-390 121 -734 196 -1133 243 -222 27 -738 35 -925 14z
m150 -3442 c257 -41 476 -151 655 -329 276 -273 400 -661 373 -1167 -20 -371
-144 -673 -369 -898 -109 -109 -190 -164 -264 -178 -175 -33 -467 -31 -636 4
-449 95 -762 374 -902 805 -61 185 -72 273 -72 555 0 224 3 261 24 359 60 285
162 484 334 659 112 113 196 171 273 187 153 31 403 33 584 3z"/>
</g>
</svg>
